<svg width="55" height="46" viewBox="0 0 55 46" fill="none" xmlns="http://www.w3.org/2000/svg">
<mask id="mask0_1_48" style="mask-type:luminance" maskUnits="userSpaceOnUse" x="10" y="6" width="36" height="34">
<path d="M10.1322 6.1441H45.8441V39.6749H10.1322V6.1441Z" fill="white"/>
</mask>
<g mask="url(#mask0_1_48)">
<path fill-rule="evenodd" clip-rule="evenodd" d="M13.9682 6.18089H41.997C43.0552 6.18089 44.0148 6.62459 44.712 7.33728C45.407 8.04997 45.8375 9.03623 45.8375 10.1191C45.8375 11.2042 45.407 12.1881 44.712 12.9054C44.017 13.6181 43.0552 14.0618 41.997 14.0618H13.9682C12.9122 14.0618 11.9527 13.6204 11.2554 12.9054C10.5604 12.1904 10.1277 11.2042 10.1277 10.1191C10.1277 9.03623 10.5582 8.04997 11.2554 7.33728C11.9504 6.62459 12.9122 6.18089 13.9682 6.18089ZM13.9682 31.748H41.997C43.0552 31.748 44.0148 32.1894 44.712 32.9044C45.407 33.6193 45.8375 34.6056 45.8375 35.6907C45.8375 36.7736 45.407 37.7598 44.712 38.4725C44.017 39.1852 43.0552 39.6289 41.997 39.6289H13.9682C12.9122 39.6289 11.9527 39.1852 11.2554 38.4725C10.5604 37.7598 10.1277 36.7736 10.1277 35.6907C10.1277 34.6056 10.5582 33.6193 11.2554 32.9044C11.9504 32.1917 12.9122 31.748 13.9682 31.748ZM13.9682 18.9656H41.997C43.0552 18.9656 44.0148 19.4093 44.712 20.122C45.407 20.8347 45.8375 21.8209 45.8375 22.906C45.8375 23.9912 45.407 24.9751 44.712 25.6901C44.017 26.4051 43.0552 26.8488 41.997 26.8488H13.9682C12.9122 26.8488 11.9527 26.4051 11.2554 25.6901C10.5604 24.9774 10.1277 23.9912 10.1277 22.906C10.1277 21.8209 10.5582 20.837 11.2554 20.122C11.9504 19.4093 12.9122 18.9656 13.9682 18.9656Z" fill="black"/>
</g>
</svg>
