<svg width="68" height="59" viewBox="0 0 68 59" fill="none" xmlns="http://www.w3.org/2000/svg">
<mask id="mask0_1_8" style="mask-type:luminance" maskUnits="userSpaceOnUse" x="7" y="9" width="50" height="42">
<path d="M7.82338 9.25173H56.1507V50.3212H7.82338V9.25173Z" fill="white"/>
</mask>
<g mask="url(#mask0_1_8)">
<path d="M55.5946 13.5443C55.2259 13.1727 54.7887 12.989 54.287 12.989H19.4126C19.3904 12.8537 19.3461 12.6053 19.2796 12.2439C19.2131 11.8844 19.1587 11.5977 19.1205 11.3857C19.0802 11.1717 19.0096 10.9132 18.9029 10.6123C18.7961 10.3115 18.6712 10.0732 18.5261 9.89751C18.379 9.72385 18.1856 9.57241 17.9438 9.44519C17.702 9.32 17.428 9.25538 17.1177 9.25538H9.68307C9.17937 9.25538 8.74215 9.44116 8.37545 9.81068C8.00876 10.1782 7.82339 10.6184 7.82339 11.1232C7.82339 11.628 8.00876 12.0642 8.37545 12.4357C8.74417 12.8052 9.17937 12.989 9.68307 12.989H15.6066L20.7464 36.9898C20.7081 37.0685 20.5107 37.438 20.15 38.0983C19.7934 38.7606 19.5073 39.3381 19.2957 39.8329C19.0802 40.3296 18.9754 40.7153 18.9754 40.9858C18.9754 41.4927 19.1587 41.9288 19.5275 42.2984C19.8962 42.6659 20.3314 42.8537 20.8331 42.8537H22.6524C21.643 42.8637 20.7807 43.2272 20.0634 43.9461C19.3381 44.675 18.9754 45.5554 18.9754 46.5852C18.9754 47.6171 19.3381 48.4954 20.0634 49.2244C20.7907 49.9533 21.6652 50.3188 22.6927 50.3188C23.7163 50.3188 24.5947 49.9533 25.32 49.2244C26.0454 48.4954 26.4101 47.6171 26.4101 46.5852C26.4101 45.5554 26.0454 44.675 25.32 43.9461C24.6048 43.2272 23.7404 42.8637 22.731 42.8537H48.6717C47.6623 42.8637 46.8 43.2272 46.0827 43.9461C45.3594 44.675 44.9947 45.5554 44.9947 46.5852C44.9947 47.6171 45.3594 48.4954 46.0827 49.2244C46.808 49.9533 47.6865 50.3188 48.712 50.3188C49.7376 50.3188 50.614 49.9533 51.3414 49.2244C52.0667 48.4954 52.4274 47.6171 52.4274 46.5852C52.4274 45.5554 52.0667 44.675 51.3414 43.9461C50.6241 43.2272 49.7597 42.8637 48.7523 42.8537H50.5697C51.0714 42.8537 51.5086 42.6659 51.8753 42.2984C52.244 41.9288 52.4274 41.4927 52.4274 40.9858C52.4274 40.481 52.244 40.0429 51.8753 39.6754C51.5086 39.3038 51.0714 39.118 50.5697 39.118H23.8533C24.3167 38.1872 24.5504 37.5652 24.5504 37.2543C24.5504 37.0584 24.5262 36.8444 24.4779 36.6122C24.4295 36.3779 24.3711 36.1215 24.3026 35.8388C24.2361 35.5561 24.1917 35.3481 24.1736 35.2128L54.4905 31.6549C54.9741 31.5963 55.371 31.3863 55.6813 31.0289C55.9895 30.6675 56.1447 30.2535 56.1447 29.7871V14.8568C56.1447 14.352 55.9613 13.9118 55.5946 13.5443Z" fill="#1A1A1A"/>
</g>
</svg>
