<svg width="70" height="63" viewBox="0 0 70 63" fill="none" xmlns="http://www.w3.org/2000/svg">
<mask id="mask0_1_34" style="mask-type:luminance" maskUnits="userSpaceOnUse" x="27" y="47" width="18" height="8">
<path d="M27.005 47.6686H44.385V54.2769H27.005V47.6686Z" fill="white"/>
</mask>
<g mask="url(#mask0_1_34)">
<path d="M35.7529 54.2769C40.4762 54.2769 44.3045 51.3908 44.3173 47.8271C44.3173 47.8198 44.3077 47.8124 44.298 47.8124H27.2078C27.1982 47.8124 27.1885 47.8198 27.1885 47.8271C27.2014 51.3908 31.0296 54.2769 35.7529 54.2769Z" fill="black"/>
</g>
<mask id="mask1_1_34" style="mask-type:luminance" maskUnits="userSpaceOnUse" x="10" y="7" width="52" height="40">
<path d="M10.0564 7.51659H61.1532V46.6326H10.0564V7.51659Z" fill="white"/>
</mask>
<g mask="url(#mask1_1_34)">
<path d="M55.7698 39.51C54.8329 38.6056 54.3242 37.4941 54.3242 36.346V26.9223C54.0859 26.9344 53.8509 26.9393 53.6094 26.9393C46.8158 26.9393 41.3101 22.7832 41.3101 17.6545C41.3101 15.9141 41.9476 14.2858 43.052 12.8939C41.806 12.4917 40.4891 12.187 39.1207 11.9969C39.1207 11.9969 39.1207 10.1077 39.1207 10.0809C39.1207 8.67688 37.6139 7.53609 35.7529 7.53609C33.8919 7.53609 32.3851 8.67688 32.3851 10.0809C32.3851 10.1077 32.3851 11.9969 32.3851 11.9969C23.811 13.184 17.2976 18.8124 17.1849 25.606H17.1816V36.346C17.1816 37.4941 16.6729 38.6056 15.736 39.51L10.6939 44.3705C10.0532 45.075 10.7229 46.0305 11.853 46.0305H59.6528C60.7829 46.0305 61.4526 45.075 60.8119 44.3705L55.7698 39.51Z" fill="black"/>
</g>
<mask id="mask2_1_34" style="mask-type:luminance" maskUnits="userSpaceOnUse" x="43" y="9" width="21" height="17">
<path d="M43.844 9.81524H63.1944V25.4158H43.844V9.81524Z" fill="white"/>
</mask>
<g mask="url(#mask2_1_34)">
<path d="M63.1945 17.6545C63.1945 21.6522 58.9026 24.8918 53.6094 24.8918C48.3162 24.8918 44.0243 21.6522 44.0243 17.6545C44.0243 13.6593 48.3162 10.4198 53.6094 10.4198C58.9026 10.4198 63.1945 13.6593 63.1945 17.6545Z" fill="#FF0000"/>
</g>
<path d="M53.3412 14.5385L51.5278 15.3743L51.8178 16.3619L53.0837 15.7758V21.3231H54.4444V14.5385H53.3412Z" fill="white"/>
</svg>
